<svg xmlns="http://www.w3.org/2000/svg" width="6302" height="2605" viewBox="0 0 6302 2605">
  <defs>
    <style>
      .cls-1, .cls-2 {
        fill-rule: evenodd;
      }

      .cls-2 {
        fill: #fff;
      }
    </style>
  </defs>
  <path id="Outline" class="cls-1" d="M5477,1323v-94h306c89.39,0,167.15,42.15,209,84l228,228c50.44,50.44,82,119.78,82,178v195.5c0,42.44-15.47,80.01-32,105,15.49,22.39,32,62.66,32,105V2590H5697l-49-49c-54.11,41.04-120.43,64-188.5,64-78.73-.15-161.42-32.92-219.5-91l-157.5-158.51V2590h-326l-74.5-74.51V2590H4356l-57.5-57.5c-47.16,34.26-109.14,57.5-180.5,57.5H3529c-69.52,0-132.86-28.86-179-75l-145-145v220H2853c-70.89,0-131.87-27.87-179-75l-148.5-149v224h-326l-121-121c-45.89,75.01-148.53,136-256,136-74.66,0-158.65-30.15-219.5-91l-57-57c-49.99,88.62-157.71,148-263.5,148-79.49.19-163.5-35-220.5-92l-17-17v94H440L220,2370V1229H524c83.749,0,177.568,50.57,221,94l48,48c57.91-95.16,156.159-157,269.5-157,99.15,0,160.08,31.58,222.5,94l15,15v-94h264l-73-73V285c0-152.676,136.92-285,302.5-285,84.69,0,165.25,36.749,220.5,92l56,56C2108.49,79.842,2202.21,0,2333.5,0c83.84,0,165.87,37.374,220.5,92l55,55C2657.96,61.218,2751.22,0,2858,0c54.52,0,108.42,16.645,154.5,47C3064.03,13.512,3116.77,0,3167,0c92.66,0,162.19,45.187,200,83l22,22V15h304c80.68,0,159.67,32.674,213,86l23,23V15h883l220,220v870c0,46.23-12.67,88.96-30,124l49,49c54.45-40.92,118.23-64,188.5-64,89.23,0,168.84,40.34,220.5,92Z"/>
  <path id="Letters" class="cls-2" d="M2052.5,1501H1913V1302h459v199H2232.49v796H2052.5V1501ZM4389,2297H4209V1302h180v995ZM1832,2098c0,119.99-109.01,214-229.47,214-120.51,0-229.53-94-229.53-214V1302h180v796h99V1302h180v796ZM752,1904.5c0-44-28.048-83.96-56-105,27.988-21,56-61.01,56-105l0-193.5c0-75.99-83-199-230-199H293v995H473l0-796h99l0,199H522v199h50v398H752V1904.5ZM3669,2297V1302h229c147,0,230,123.01,230,199v597c0,75.98-83,199-230,199V2098h50V1501h-99v796H3669Zm-757-398V1700H2682v199h230Zm-279-398h279V1302H2633c-99.36,0-180,80.59-180,180v635c0,99.41,80.64,180,180,180h279V2098H2633V1501ZM1112,2098h-99V1501h99v597Zm180-597c0-119.99-108.98-214-229.5-214-120.488,0-229.5,94-229.5,214v597c0,120,109.027,214,229.533,214,120.46,0,229.47-94.01,229.47-214V1501Zm2296,398V1700H3358v199h230Zm-279-398h279V1302H3309c-99.36,0-180,80.59-180,180v635c0,99.41,80.64,180,180,180h279V2098H3309V1501Zm1300.5,0H4470V1302h459v199H4789.49v796H4609.5V1501ZM5289,2098h-99V1501h99v597Zm180-597c0-119.99-108.98-214-229.5-214-120.49,0-229.5,94-229.5,214v597c0,120,109.02,214,229.53,214,120.46,0,229.47-94.01,229.47-214V1501Zm540,403.5c0-44-28.05-83.96-56-105,27.99-21,56-61.01,56-105V1501c0-75.99-83-199-230-199H5550v995h180V1501h99v199h-50v199h50v398h180V1904.5ZM2563,884c0,119.991-109.01,214-229.47,214-120.51,0-229.53-94-229.53-214V685h180V884h99V754c0-121-279-118.993-279-287V287c0-120,109.01-214,229.49-214C2454.02,73,2563,167.005,2563,287V486H2383V287h-99V417c0,121,279,119.017,279,287V884ZM3921,690.5c0-44-28.05-83.958-56-105,27.99-21,56-61.013,56-105V287c0-75.985-83-199-230-199H3462v995h180V287h99V486h-50V685h50V884h-50v199c147,0,230-123.016,230-199V690.5ZM3381,287c0-110-93.05-214-213-214-77.99,0-130.04,41.981-155.47,67.4C2987.17,115.038,2934.93,73,2857,73c-119.99,0-213,104-213,214v796h180V287h98.48v796h180.03V287H3201v796h180V287Zm-1358,0c0-119.99-109.01-214-229.47-214C1673.02,73,1564,167,1564,287v796h180V287h99v796h180V287ZM4739,884c0,110.005-93.05,214-213,214-77.99,0-130.04-41.98-155.47-67.4-25.36,25.36-77.6,67.4-155.53,67.4-119.99,0-213-104-213-214V88h180V884h98.48V88h180.03V884H4559V88h180V884Z"/>
</svg>
